<svg width="44" height="44" viewBox="0 0 44 44" fill="none" xmlns="http://www.w3.org/2000/svg">
<path fill-rule="evenodd" clip-rule="evenodd" d="M8.94993 18.375C8.94993 18.375 9.93593 18.2421 11.3666 17.8602C15.139 16.8537 21.9999 14.1217 21.9999 7.55074C21.9999 6.592 21.8111 5.64264 21.4442 4.75687C21.0773 3.8711 20.5395 3.06627 19.8616 2.38833C19.1837 1.7104 18.3788 1.17263 17.4931 0.80573C16.6073 0.438833 15.6579 0.249994 14.6992 0.249994H7.55068C6.58411 0.237558 5.62469 0.417195 4.72809 0.778483C3.83149 1.13977 3.01557 1.67551 2.32766 2.35463C1.63975 3.03374 1.09356 3.84271 0.720763 4.73458C0.347971 5.62646 0.156006 6.58349 0.156006 7.55014C0.156006 8.51679 0.347971 9.47382 0.720763 10.3657C1.09356 11.2576 1.63975 12.0665 2.32766 12.7456C3.01557 13.4248 3.83149 13.9605 4.72809 14.3218C5.62469 14.6831 6.58411 14.8627 7.55068 14.8503H8.94993V18.375ZM11.3666 12.4336H7.55068C6.90291 12.4438 6.25958 12.325 5.65816 12.0842C5.05674 11.8433 4.50925 11.4852 4.04756 11.0308C3.58587 10.5763 3.21921 10.0345 2.96894 9.43693C2.71866 8.83937 2.58978 8.19799 2.58978 7.55014C2.58978 6.90229 2.71866 6.26091 2.96894 5.66335C3.21921 5.0658 3.58587 4.524 4.04756 4.06952C4.50925 3.61503 5.05674 3.25694 5.65816 3.0161C6.25958 2.77526 6.90291 2.65647 7.55068 2.66666H14.6992C15.3406 2.66666 15.9757 2.79299 16.5682 3.03844C17.1608 3.28389 17.6992 3.64365 18.1527 4.09717C18.6063 4.5507 18.966 5.08912 19.2115 5.68169C19.4569 6.27425 19.5833 6.90936 19.5833 7.55074C19.5833 10.6719 17.3986 12.7502 14.4249 14.1845C13.4379 14.6534 12.4153 15.0433 11.3666 15.3505V12.4336ZM10.5208 31.6667C13.1912 31.6667 15.3541 29.5037 15.3541 26.8333C15.3541 24.1629 13.1912 22 10.5208 22C7.85034 22 5.68743 24.1629 5.68743 26.8333C5.68743 29.5037 7.85034 31.6667 10.5208 31.6667ZM12.9374 26.8333C12.9374 27.4743 12.6828 28.089 12.2296 28.5422C11.7764 28.9954 11.1617 29.25 10.5208 29.25C9.87982 29.25 9.26513 28.9954 8.81192 28.5422C8.35871 28.089 8.10409 27.4743 8.10409 26.8333C8.10409 26.1924 8.35871 25.5777 8.81192 25.1245C9.26513 24.6713 9.87982 24.4167 10.5208 24.4167C11.1617 24.4167 11.7764 24.6713 12.2296 25.1245C12.6828 25.5777 12.9374 26.1924 12.9374 26.8333ZM0.249928 39.2393C0.249928 35.81 7.09272 34.0833 10.5208 34.0833C13.9488 34.0833 20.7916 35.8112 20.7916 39.2393V43.75H0.249928V39.2393ZM2.66659 41.3333V39.2393C2.66659 39.2272 2.66659 39.203 2.69801 39.1426C2.73668 39.0677 2.82489 38.936 3.0158 38.7596C3.41334 38.391 4.07914 37.9887 5.0011 37.6177C6.84984 36.8746 9.10943 36.5 10.5208 36.5C11.9309 36.5 14.1929 36.8746 16.0404 37.6177C16.9612 37.9887 17.6282 38.391 18.0257 38.7596C18.2166 38.936 18.3048 39.0677 18.3435 39.1414C18.3749 39.2018 18.3749 39.2284 18.3749 39.2381V41.3333H2.66659ZM38.3124 26.8333C38.3124 29.5037 36.1495 31.6667 33.4791 31.6667C30.8087 31.6667 28.6458 29.5037 28.6458 26.8333C28.6458 24.1629 30.8087 22 33.4791 22C36.1495 22 38.3124 24.1629 38.3124 26.8333ZM33.4791 29.25C34.12 29.25 34.7347 28.9954 35.1879 28.5422C35.6412 28.089 35.8958 27.4743 35.8958 26.8333C35.8958 26.1924 35.6412 25.5777 35.1879 25.1245C34.7347 24.6713 34.12 24.4167 33.4791 24.4167C32.8382 24.4167 32.2235 24.6713 31.7703 25.1245C31.317 25.5777 31.0624 26.1924 31.0624 26.8333C31.0624 27.4743 31.317 28.089 31.7703 28.5422C32.2235 28.9954 32.8382 29.25 33.4791 29.25ZM23.2083 39.2393C23.2083 35.81 30.0511 34.0833 33.4791 34.0833C36.9071 34.0833 43.7499 35.8112 43.7499 39.2393V43.75H23.2083V39.2393ZM25.6249 41.3333V39.2393C25.6249 39.2272 25.6249 39.203 25.6563 39.1426C25.695 39.0677 25.7832 38.936 25.9729 38.7596C26.3717 38.391 27.0387 37.9887 27.9594 37.6177C29.8082 36.8746 32.0678 36.5 33.4791 36.5C34.8892 36.5 37.1512 36.8746 38.9988 37.6177C39.9195 37.9887 40.5865 38.391 40.9853 38.7596C41.175 38.936 41.2632 39.0677 41.3018 39.1414C41.3333 39.2018 41.3333 39.2284 41.3333 39.2381V41.3333H25.6249ZM33.5999 18.9864C35.0137 19.4311 36.0166 19.5833 36.0166 19.5833V16.0586H36.4492C37.4158 16.0711 38.3752 15.8914 39.2718 15.5301C40.1684 15.1688 40.9843 14.6331 41.6722 13.954C42.3601 13.2749 42.9063 12.4659 43.2791 11.574C43.6519 10.6822 43.8438 9.72512 43.8438 8.75847C43.8438 7.79182 43.6519 6.83479 43.2791 5.94292C42.9063 5.05104 42.3601 4.24208 41.6722 3.56296C40.9843 2.88385 40.1684 2.3481 39.2718 1.98682C38.3752 1.62553 37.4158 1.44589 36.4492 1.45833H31.7173C29.7811 1.45833 27.9241 2.22751 26.5549 3.59667C25.1858 4.96582 24.4166 6.8228 24.4166 8.75908C24.4166 15.1584 30.2009 17.9182 33.5999 18.9864ZM36.4492 13.642H33.5999V16.4368C32.8327 16.1628 32.087 15.8316 31.3693 15.446C28.8512 14.0794 26.8333 12.0288 26.8333 8.75787C26.8336 7.46274 27.3483 6.22076 28.2642 5.30508C29.1801 4.3894 30.4222 3.87499 31.7173 3.87499H36.4492C37.097 3.8648 37.7403 3.98359 38.3417 4.22443C38.9431 4.46528 39.4906 4.82337 39.9523 5.27785C40.414 5.73233 40.7806 6.27413 41.0309 6.87169C41.2812 7.46924 41.4101 8.11062 41.4101 8.75847C41.4101 9.40632 41.2812 10.0477 41.0309 10.6453C40.7806 11.2428 40.414 11.7846 39.9523 12.2391C39.4906 12.6936 38.9431 13.0517 38.3417 13.2925C37.7403 13.5334 37.097 13.6521 36.4492 13.642Z" fill="#621897"/>
</svg>
