<svg width="46" height="29" viewBox="0 0 46 29" fill="none" xmlns="http://www.w3.org/2000/svg">
<path d="M27.875 4.9375C27.875 4.51481 28.0429 4.10943 28.3418 3.81055C28.6407 3.51166 29.0461 3.34375 29.4688 3.34375H42.2188C42.6414 3.34375 43.0468 3.51166 43.3457 3.81055C43.6446 4.10943 43.8125 4.51481 43.8125 4.9375C43.8125 5.36019 43.6446 5.76557 43.3457 6.06445C43.0468 6.36334 42.6414 6.53125 42.2188 6.53125H29.4688C29.0461 6.53125 28.6407 6.36334 28.3418 6.06445C28.0429 5.76557 27.875 5.36019 27.875 4.9375ZM45.4062 19.2812C45.4062 19.7039 45.2383 20.1093 44.9395 20.4082C44.6406 20.7071 44.2352 20.875 43.8125 20.875H29.668C30.0245 22.2423 30.8239 23.453 31.9412 24.318C33.0584 25.183 34.4308 25.6536 35.8438 25.6562C36.6812 25.6603 37.511 25.4967 38.2843 25.1751C39.0575 24.8535 39.7586 24.3804 40.3461 23.7836C40.6449 23.4855 41.0497 23.3182 41.4717 23.3182C41.8937 23.3182 42.2985 23.4855 42.5973 23.7836C42.7473 23.9302 42.8664 24.1053 42.9478 24.2986C43.0292 24.4918 43.0711 24.6995 43.0711 24.9092C43.0711 25.1189 43.0292 25.3265 42.9478 25.5198C42.8664 25.7131 42.7473 25.8882 42.5973 26.0348C41.7149 26.9286 40.6632 27.6374 39.5035 28.1197C38.3439 28.602 37.0997 28.8482 35.8438 28.8438C33.9525 28.8437 32.1037 28.2829 30.5311 27.2322C28.9586 26.1814 27.7329 24.688 27.0092 22.9407C26.2854 21.1933 26.096 19.2706 26.465 17.4157C26.834 15.5608 27.7447 13.8569 29.082 12.5195C30.4194 11.1822 32.1233 10.2715 33.9782 9.90249C35.8331 9.53352 37.7558 9.72289 39.5032 10.4467C41.2505 11.1704 42.7439 12.3961 43.7947 13.9686C44.8454 15.5412 45.4062 17.39 45.4062 19.2812ZM42.0195 17.6875C41.6684 16.3162 40.8709 15.1008 39.7527 14.2328C38.6345 13.3649 37.2593 12.8938 35.8438 12.8938C34.4282 12.8938 33.053 13.3649 31.9348 14.2328C30.8166 15.1008 30.0191 16.3162 29.668 17.6875H42.0195ZM23.8906 20.4766C23.8906 22.6957 23.0091 24.8239 21.4399 26.3931C19.8708 27.9622 17.7426 28.8437 15.5234 28.8438H2.375C1.95231 28.8438 1.54693 28.6758 1.24805 28.377C0.949162 28.0781 0.78125 27.6727 0.78125 27.25V1.75C0.78125 1.32731 0.949162 0.921935 1.24805 0.623049C1.54693 0.324163 1.95231 0.15625 2.375 0.15625H13.1328C14.5925 0.158296 16.0206 0.582327 17.2448 1.37727C18.4691 2.17221 19.4375 3.30416 20.0333 4.63677C20.629 5.96939 20.8269 7.44583 20.6028 8.88827C20.3788 10.3307 19.7426 11.6776 18.7707 12.7668C20.2879 13.4057 21.5829 14.478 22.4937 15.8494C23.4044 17.2207 23.8903 18.8303 23.8906 20.4766ZM3.96875 12.1094H13.1328C14.2952 12.1094 15.41 11.6476 16.2319 10.8257C17.0539 10.0037 17.5156 8.88896 17.5156 7.72656C17.5156 6.56417 17.0539 5.44938 16.2319 4.62745C15.41 3.80551 14.2952 3.34375 13.1328 3.34375H3.96875V12.1094ZM20.7031 20.4766C20.6979 19.1044 20.1505 17.79 19.1802 16.8198C18.21 15.8495 16.8956 15.3021 15.5234 15.2969H3.96875V25.6562H15.5234C16.8956 25.651 18.21 25.1036 19.1802 24.1334C20.1505 23.1631 20.6979 21.8487 20.7031 20.4766Z" fill="#2A2A2A"/>
</svg>
