<svg width="48" height="38" viewBox="0 0 48 38" fill="none" xmlns="http://www.w3.org/2000/svg">
<path d="M12.4961 12.379L4.56641 19.0001L12.4961 25.6211C12.6551 25.7498 12.787 25.9087 12.884 26.0888C12.981 26.2688 13.0413 26.4664 13.0613 26.6699C13.0813 26.8735 13.0606 27.079 13.0004 27.2745C12.9403 27.47 12.8419 27.6515 12.7109 27.8086C12.5627 27.9857 12.3774 28.1282 12.1682 28.226C11.959 28.3239 11.731 28.3748 11.5 28.375C11.1339 28.3767 10.7797 28.2448 10.5039 28.004L1.12891 20.1915C0.95302 20.0467 0.811359 19.8648 0.714102 19.6588C0.616845 19.4528 0.566406 19.2278 0.566406 19.0001C0.566406 18.7723 0.616845 18.5473 0.714102 18.3413C0.811359 18.1353 0.95302 17.9534 1.12891 17.8086L10.5039 9.99615C10.6559 9.83745 10.8397 9.71259 11.0432 9.62974C11.2467 9.54688 11.4654 9.50789 11.6851 9.5153C11.9047 9.52271 12.1203 9.57636 12.3177 9.67276C12.5152 9.76915 12.6901 9.90611 12.8311 10.0747C12.972 10.2433 13.0758 10.4397 13.1357 10.6511C13.1956 10.8626 13.2102 11.0842 13.1786 11.3017C13.147 11.5191 13.0699 11.7275 12.9523 11.9131C12.8347 12.0987 12.6792 12.2575 12.4961 12.379ZM46.8711 17.8086L37.4961 9.99615C37.1757 9.78357 36.7881 9.69663 36.4076 9.75195C36.027 9.80727 35.6803 10.001 35.4336 10.296C35.187 10.591 35.0578 10.9666 35.0707 11.3509C35.0837 11.7352 35.2379 12.1012 35.5039 12.379L43.4336 19.0001L35.5039 25.6211C35.2609 25.8273 35.0868 26.1028 35.0048 26.4108C34.9228 26.7188 34.937 27.0444 35.0454 27.3441C35.1538 27.6438 35.3512 27.9031 35.6112 28.0874C35.8712 28.2717 36.1813 28.372 36.5 28.375C36.8661 28.3767 37.2203 28.2448 37.4961 28.004L46.8711 20.1915C47.047 20.0467 47.1887 19.8648 47.2859 19.6588C47.3832 19.4528 47.4336 19.2278 47.4336 19.0001C47.4336 18.7723 47.3832 18.5473 47.2859 18.3413C47.1887 18.1353 47.047 17.9534 46.8711 17.8086ZM30.7774 0.347709C30.5851 0.276537 30.3806 0.244377 30.1759 0.25311C29.9711 0.261843 29.7701 0.311293 29.5846 0.398571C29.3991 0.48585 29.2329 0.609207 29.0957 0.76144C28.9584 0.913673 28.8528 1.09173 28.7852 1.28521L16.2852 35.6602C16.214 35.8524 16.1818 36.0569 16.1906 36.2617C16.1993 36.4665 16.2487 36.6675 16.336 36.853C16.4233 37.0384 16.5467 37.2046 16.6989 37.3419C16.8511 37.4792 17.0292 37.5847 17.2227 37.6524C17.3921 37.713 17.5701 37.746 17.75 37.75C18.0716 37.7517 18.3857 37.6528 18.6483 37.4672C18.9109 37.2816 19.109 37.0186 19.2149 36.7149L31.7149 2.3399C31.786 2.14767 31.8182 1.9432 31.8095 1.7384C31.8007 1.53361 31.7513 1.33262 31.664 1.14715C31.5767 0.961683 31.4534 0.795465 31.3011 0.658204C31.1489 0.520943 30.9708 0.41539 30.7774 0.347709Z" fill="#621897"/>
</svg>
