<svg width="102" height="102" viewBox="0 0 102 102" fill="none" xmlns="http://www.w3.org/2000/svg">
<path d="M51 92.4375C73.8853 92.4375 92.4375 73.8853 92.4375 51C92.4375 28.1147 73.8853 9.5625 51 9.5625C28.1147 9.5625 9.5625 28.1147 9.5625 51C9.5625 73.8853 28.1147 92.4375 51 92.4375Z" stroke="black" stroke-width="6" stroke-linecap="round" stroke-linejoin="round"/>
<path d="M38.5368 66.64C39.6952 68.102 41.1876 69.2645 42.8886 70.03C44.5895 70.7954 46.4494 71.1414 48.3118 71.0388H54.1768C56.7693 71.0388 59.2556 70.0089 61.0888 68.1757C62.922 66.3426 63.9518 63.8562 63.9518 61.2637C63.9518 58.6713 62.922 56.1849 61.0888 54.3518C59.2556 52.5186 56.7693 51.4887 54.1768 51.4887H47.8231C45.2306 51.4887 42.7443 50.4589 40.9111 48.6257C39.078 46.7925 38.0481 44.3062 38.0481 41.7137C38.0481 39.1213 39.078 36.6349 40.9111 34.8018C42.7443 32.9686 45.2306 31.9387 47.8231 31.9387H53.6881C58.0868 31.9387 61.0193 32.9163 63.4631 36.3375M50.7556 26.5625V75.4375" stroke="black" stroke-width="6" stroke-linecap="round" stroke-linejoin="round"/>
</svg>
