<svg width="51" height="36" viewBox="0 0 51 36" fill="none" xmlns="http://www.w3.org/2000/svg">
<path d="M50.6542 12.3801L45.5819 2.64962C45.2283 1.97624 44.6258 1.46748 43.9028 1.23161C43.1797 0.995735 42.3931 1.05139 41.7104 1.38673L36.8038 3.8504H33.2222L26.3073 0.724225C25.6792 0.428108 24.9633 0.376446 24.2991 0.579303L14.0718 3.56055L9.28935 1.15899C8.60581 0.829004 7.82114 0.776177 7.09954 1.01156C6.37794 1.24695 5.77534 1.75231 5.41786 2.42188L0.3456 12.1731C0.161325 12.5124 0.0477465 12.8855 0.0117259 13.27C-0.0242946 13.6544 0.0179902 14.0422 0.136026 14.4099C0.254062 14.7775 0.445399 15.1174 0.698479 15.4091C0.951559 15.7007 1.26113 15.938 1.60849 16.1066L6.61865 18.6117L17.8397 27.3692C18.1526 27.6288 18.5209 27.813 18.9163 27.9074L30.9241 30.9094C31.1471 30.9675 31.3769 30.9954 31.6073 30.9922C32.3756 30.99 33.112 30.685 33.6569 30.1434L41.2757 22.5246H41.3585L44.5054 18.7774L49.3913 16.3344C49.7376 16.1592 50.0458 15.9171 50.2981 15.6222C50.5504 15.3273 50.7418 14.9853 50.8612 14.616C50.9772 14.2483 51.0186 13.8611 50.983 13.4772C50.9475 13.0933 50.8357 12.7203 50.6542 12.3801ZM40.1991 19.9574L32.0214 14.0156C31.8061 13.8622 31.5474 13.7815 31.283 13.7852C31.0187 13.7889 30.7624 13.8769 30.5515 14.0363L27.9015 16.0238C26.9684 16.7195 25.8356 17.0953 24.6718 17.0953C23.5079 17.0953 22.3752 16.7195 21.4421 16.0238L20.3241 15.175C20.2717 15.1423 20.2288 15.0964 20.1997 15.0419C20.1706 14.9874 20.1564 14.9262 20.1585 14.8645C20.1536 14.8066 20.1622 14.7484 20.1838 14.6945C20.2054 14.6406 20.2392 14.5924 20.2827 14.5539L28.3776 6.43829C28.4609 6.37398 28.5623 6.33773 28.6675 6.33477H36.3483L42.228 17.5973L40.1991 19.9574ZM2.51943 13.643C2.49705 13.5899 2.48727 13.5324 2.49087 13.4749C2.49446 13.4174 2.51132 13.3616 2.54013 13.3117L7.6331 3.56055C7.6706 3.4955 7.72509 3.44186 7.79074 3.40539C7.85638 3.36893 7.9307 3.351 8.00576 3.35352C8.06424 3.34533 8.12363 3.36017 8.17138 3.39493L12.2292 5.40313L6.74286 15.8996L2.72646 13.8707C2.67695 13.8509 2.6326 13.8201 2.59673 13.7807C2.56087 13.7412 2.53443 13.6941 2.51943 13.643ZM31.9179 28.3836C31.8667 28.4332 31.8037 28.4689 31.7348 28.487C31.6659 28.5051 31.5934 28.5052 31.5245 28.4871L19.5167 25.5059L19.3718 25.4231L8.85458 17.2039L14.7343 5.94141L25.003 2.96016C25.0994 2.9367 25.2008 2.94393 25.2929 2.98087L27.6323 4.03673C27.2521 4.18526 26.9067 4.41082 26.6179 4.69923L18.5229 12.7941C18.2261 13.0861 17.9961 13.439 17.8489 13.8284C17.7017 14.2179 17.6407 14.6347 17.6703 15.05C17.6998 15.4653 17.8191 15.8692 18.0199 16.234C18.2207 16.5987 18.4983 16.9155 18.8335 17.1625L19.9515 18.0113C21.3185 19.0201 22.9728 19.5644 24.6718 19.5644C26.3707 19.5644 28.025 19.0201 29.3921 18.0113L31.3175 16.5621L38.5015 21.8L31.9179 28.3836ZM48.4804 13.85C48.4667 13.9043 48.441 13.9548 48.4052 13.9979C48.3694 14.0409 48.3243 14.0752 48.2733 14.0984L44.2569 16.1066L38.7706 5.63087L42.8284 3.60196C42.9249 3.55824 43.0345 3.5532 43.1347 3.58786C43.2348 3.62252 43.3178 3.69425 43.3667 3.78829L48.4597 13.5395C48.4883 13.5856 48.5051 13.638 48.5088 13.6922C48.5124 13.7463 48.5026 13.8005 48.4804 13.85ZM23.3882 34.3668C23.3201 34.6352 23.1657 34.8739 22.9488 35.0459C22.7318 35.218 22.4643 35.314 22.1874 35.3191L21.8768 35.2777L15.6452 33.7043C15.2002 33.5987 14.7878 33.3854 14.4444 33.0832L9.78622 29.0254C9.64013 28.9273 9.51655 28.7993 9.42366 28.6498C9.33077 28.5004 9.27069 28.3329 9.24741 28.1585C9.22413 27.9841 9.23817 27.8067 9.28861 27.6381C9.33904 27.4695 9.42472 27.3136 9.53997 27.1806C9.65522 27.0476 9.7974 26.9406 9.95711 26.8667C10.1168 26.7928 10.2904 26.7537 10.4664 26.752C10.6423 26.7502 10.8166 26.7859 10.9778 26.8566C11.1389 26.9273 11.2832 27.0315 11.4011 27.1621L16.08 31.2199C16.1282 31.2597 16.1848 31.288 16.2456 31.3027L22.4979 32.8555C22.8161 32.9383 23.0885 33.1439 23.2554 33.4272C23.4223 33.7105 23.47 34.0484 23.3882 34.3668Z" fill="#621897"/>
</svg>
