<svg width="42" height="42" viewBox="0 0 42 42" fill="none" xmlns="http://www.w3.org/2000/svg">
<path d="M18.4 5.39997C16.4162 5.39997 14.565 5.95377 12.9868 6.91837C12.8236 6.04584 12.5263 5.20385 12.1054 4.42237C14.0847 3.32699 16.3157 2.7671 18.5777 2.79803C20.8397 2.82896 23.0545 3.44965 25.0032 4.59874C26.9519 5.74783 28.567 7.38554 29.6888 9.35002C30.8107 11.3145 31.4005 13.5377 31.4 15.8H37.9025C38.9364 15.8007 39.9278 16.2119 40.6586 16.9432C41.3894 17.6745 41.7999 18.6661 41.7999 19.7V35.3C41.7999 36.3343 41.3891 37.3263 40.6577 38.0577C39.9263 38.7891 38.9343 39.2 37.8999 39.2H22.2999C21.2656 39.2 20.2736 38.7891 19.5422 38.0577C18.8108 37.3263 18.4 36.3343 18.4 35.3V28.8C16.5913 28.8023 14.8023 28.4258 13.148 27.695C13.1818 26.811 13.2 25.8828 13.2 24.9V24.809C14.7288 25.693 16.5046 26.2 18.4 26.2V19.7C18.4 18.6656 18.8108 17.6736 19.5422 16.9423C20.2736 16.2109 21.2656 15.8 22.2999 15.8H28.7999C28.7999 13.0417 27.7042 10.3964 25.7539 8.44606C23.8035 6.49568 21.1582 5.39997 18.4 5.39997ZM31.1399 18.4C30.6285 20.8974 29.395 23.1897 27.5924 24.9924C25.7897 26.795 23.4974 28.0286 21 28.54V35.3C21 35.6447 21.1369 35.9754 21.3807 36.2192C21.6245 36.463 21.9552 36.6 22.2999 36.6H37.8999C38.2447 36.6 38.5754 36.463 38.8192 36.2192C39.063 35.9754 39.2 35.6447 39.2 35.3V19.7C39.2 19.3552 39.063 19.0245 38.8192 18.7807C38.5754 18.5369 38.2447 18.4 37.8999 18.4H31.1399ZM28.4723 18.4H22.2999C21.9552 18.4 21.6245 18.5369 21.3807 18.7807C21.1369 19.0245 21 19.3552 21 19.7V25.8724C22.7987 25.4064 24.44 24.4678 25.7539 23.1539C27.0678 21.84 28.0063 20.1987 28.4723 18.4ZM6.91055 0.524969C7.12636 0.713734 7.27371 0.968548 7.32967 1.24975C7.38563 1.53095 7.34705 1.82277 7.21995 2.07977C7.19794 2.15584 7.18656 2.23458 7.18615 2.31377C7.18615 2.47757 7.22775 2.78957 7.62035 3.17957C7.81015 3.36937 7.95575 3.50457 8.11435 3.65277C8.24435 3.77237 8.38215 3.89717 8.55635 4.06877C8.89435 4.39117 9.25055 4.77077 9.57035 5.24657C10.2334 6.24237 10.6 7.48777 10.6 9.29997C10.6 11.5178 9.77835 13.408 8.49655 14.5676L8.66295 14.76C9.39095 15.6544 9.81475 16.814 10.08 17.958C10.6 20.22 10.6 22.9396 10.6 24.835V24.9C10.6 32.1462 9.61455 36.2568 8.53035 38.6072C7.98435 39.7902 7.40455 40.5442 6.90275 41.0174C6.69874 41.2131 6.47378 41.3857 6.23195 41.5322C6.12122 41.5988 6.00563 41.6571 5.88615 41.7064C5.88615 41.7064 5.59235 41.8 5.39995 41.8C5.20755 41.8 4.91375 41.7064 4.91375 41.7064C4.79298 41.66 4.67714 41.6016 4.56795 41.5322C4.32612 41.3857 4.10116 41.2131 3.89715 41.0174C3.39535 40.5416 2.81555 39.7902 2.26955 38.6072C1.18535 36.2568 0.199951 32.1462 0.199951 24.9V24.835C0.199951 22.937 0.199951 20.22 0.719951 17.958C0.985151 16.814 1.40895 15.6544 2.13695 14.76C2.18895 14.695 2.24615 14.63 2.30335 14.5676C1.02155 13.408 0.199951 11.5178 0.199951 9.29997C0.199951 8.45237 0.426151 7.44097 0.738151 6.50757C1.05015 5.57157 1.48695 4.60437 1.99135 3.82437C2.59195 2.81037 3.43695 1.96017 4.09215 1.38817C4.45136 1.07226 4.82624 0.774617 5.21535 0.496369L5.29335 0.444369L5.31675 0.426169L5.32455 0.420969L5.32975 0.418369C5.56816 0.259449 5.85239 0.183742 6.13827 0.20302C6.42414 0.222298 6.69564 0.335479 6.91055 0.524969ZM5.39995 13.2C6.40615 13.1974 7.99995 12.082 7.99995 9.29997C7.99995 7.86217 7.71655 7.15757 7.40455 6.68957C7.21485 6.41622 6.99604 6.16428 6.75195 5.93817L6.42955 5.63657C6.21895 5.43897 5.97195 5.21017 5.77955 5.02037C5.49519 4.73897 5.25108 4.41961 5.05415 4.07137C4.7232 4.41936 4.43194 4.80304 4.18575 5.21537C3.82175 5.77437 3.46815 6.54137 3.20555 7.33177C2.93515 8.13777 2.79995 8.85017 2.79995 9.29997C2.79995 12.0872 4.39895 13.2 5.39995 13.2H5.40515H5.39995ZM4.15195 16.4032C3.78275 16.853 3.47595 17.5706 3.25235 18.543C2.80515 20.4878 2.79995 22.9318 2.79995 24.9C2.79995 31.9538 3.76455 35.6432 4.63035 37.5178C4.91635 38.134 5.18415 38.5448 5.39995 38.8178C5.70714 38.4165 5.96549 37.9801 6.16955 37.5178C7.03535 35.6432 7.99995 31.9538 7.99995 24.9C7.99995 22.9318 7.99475 20.4878 7.54495 18.543C7.32135 17.5706 7.01455 16.853 6.64795 16.4032C6.50454 16.2089 6.31597 16.0524 6.09852 15.9473C5.88108 15.8422 5.64132 15.7916 5.39995 15.8H5.39475C5.15422 15.7923 4.91542 15.8431 4.69892 15.9482C4.48241 16.0533 4.2947 16.2094 4.15195 16.4032Z" fill="#621897"/>
</svg>
