<svg width="41" height="40" viewBox="0 0 41 40" fill="none" xmlns="http://www.w3.org/2000/svg">
<path d="M20.5 0.916504C9.68017 0.916504 0.916629 9.68005 0.916629 20.4998C0.914408 24.6109 2.20681 28.6183 4.61047 31.9535C7.01413 35.2887 10.407 37.7823 14.3077 39.0805C15.2869 39.2509 15.6531 38.6634 15.6531 38.1483C15.6531 37.6842 15.6276 36.143 15.6276 34.5019C10.7083 35.4086 9.43538 33.3034 9.04371 32.2009C8.82242 31.6369 7.86871 29.8998 7.03642 29.4338C6.351 29.0675 5.37184 28.1608 7.01096 28.1373C8.55413 28.1119 9.65471 29.5571 10.0229 30.1446C11.7854 33.1056 14.6015 32.2733 15.7255 31.7603C15.8979 30.4873 16.411 29.6315 16.975 29.142C12.6177 28.6524 8.06455 26.9623 8.06455 19.4717C8.06455 17.341 8.82242 15.5805 10.0718 14.2077C9.876 13.7181 9.19059 11.7108 10.2677 9.01813C10.2677 9.01813 11.9068 8.50505 15.6531 11.0274C17.2473 10.5849 18.8945 10.3622 20.5489 10.3655C22.2135 10.3655 23.8781 10.5848 25.4448 11.0254C29.1891 8.47959 30.8302 9.02009 30.8302 9.02009C31.9073 11.7128 31.2218 13.7201 31.026 14.2097C32.2735 15.5805 33.0333 17.3175 33.0333 19.4717C33.0333 26.9878 28.4567 28.6524 24.0994 29.142C24.8083 29.753 25.4213 30.928 25.4213 32.7649C25.4213 35.3832 25.3958 37.4884 25.3958 38.1503C25.3958 38.6634 25.764 39.2744 26.7431 39.0785C30.6305 37.7661 34.0084 35.2676 36.4014 31.9348C38.7945 28.6021 40.0822 24.6028 40.0833 20.4998C40.0833 9.68005 31.3198 0.916504 20.5 0.916504Z" fill="#2A2A2A"/>
</svg>
