<svg width="104" height="92" viewBox="0 0 104 92" fill="none" xmlns="http://www.w3.org/2000/svg">
<path d="M104 34.8201C104.002 33.4082 103.63 32.0209 102.923 30.7993C102.215 29.5776 101.196 28.5653 99.9699 27.8651L56.1599 1.86506C54.8973 1.1284 53.4617 0.740234 51.9999 0.740234C50.5381 0.740234 49.1026 1.1284 47.8399 1.86506L3.96495 27.8651C2.75251 28.5845 1.74813 29.607 1.05052 30.8321C0.352915 32.0572 -0.013916 33.4427 -0.013916 34.8526C-0.013916 36.2624 0.352915 37.6479 1.05052 38.873C1.74813 40.0981 2.75251 41.1206 3.96495 41.8401L16.4449 49.1201V67.3851C16.4525 68.8125 16.8271 70.2141 17.5329 71.4549C18.2387 72.6957 19.2518 73.734 20.4749 74.4701L48.0999 90.3951C49.3334 91.0779 50.7201 91.4362 52.1299 91.4362C53.5398 91.4362 54.9265 91.0779 56.1599 90.3951L83.785 74.4701C85.0081 73.734 86.0212 72.6957 86.727 71.4549C87.4328 70.2141 87.8074 68.8125 87.8149 67.3851V48.9251L95.8749 44.18V61.8601H104V34.8201ZM79.7549 67.3201L51.9999 83.3101L24.5699 67.3851V53.9301L47.8399 67.7751C49.1069 68.499 50.5408 68.8798 51.9999 68.8798C53.4591 68.8798 54.893 68.499 56.1599 67.7751L79.6899 53.7351L79.7549 67.3201ZM51.9999 60.7551L8.12494 34.7551L51.9999 8.69006L95.8749 34.6901L51.9999 60.7551Z" fill="#621897"/>
</svg>
