<svg width="45" height="45" viewBox="0 0 45 45" fill="none" xmlns="http://www.w3.org/2000/svg">
<rect width="45" height="45" rx="10" fill="#621897"/>
<path d="M16.2711 7.34204H29.2027C34.129 7.34204 38.1316 11.3447 38.1316 16.271V29.2026C38.1316 31.5707 37.1909 33.8418 35.5164 35.5163C33.8419 37.1908 31.5708 38.1315 29.2027 38.1315H16.2711C11.3448 38.1315 7.34216 34.1289 7.34216 29.2026V16.271C7.34216 13.9029 8.28289 11.6318 9.95739 9.95727C11.6319 8.28277 13.903 7.34204 16.2711 7.34204ZM15.9632 10.421C14.4934 10.421 13.0837 11.0049 12.0444 12.0442C11.005 13.0836 10.4211 14.4932 10.4211 15.9631V29.5105C10.4211 32.574 12.8997 35.0526 15.9632 35.0526H29.5106C30.9804 35.0526 32.3901 34.4687 33.4294 33.4293C34.4688 32.39 35.0527 30.9803 35.0527 29.5105V15.9631C35.0527 12.8995 32.5741 10.421 29.5106 10.421H15.9632ZM30.8191 12.7302C31.3295 12.7302 31.819 12.9329 32.1799 13.2938C32.5407 13.6547 32.7435 14.1442 32.7435 14.6545C32.7435 15.1649 32.5407 15.6544 32.1799 16.0153C31.819 16.3761 31.3295 16.5789 30.8191 16.5789C30.3088 16.5789 29.8193 16.3761 29.4584 16.0153C29.0975 15.6544 28.8948 15.1649 28.8948 14.6545C28.8948 14.1442 29.0975 13.6547 29.4584 13.2938C29.8193 12.9329 30.3088 12.7302 30.8191 12.7302ZM22.7369 15.0394C24.7784 15.0394 26.7362 15.8504 28.1798 17.2939C29.6233 18.7375 30.4343 20.6953 30.4343 22.7368C30.4343 24.7782 29.6233 26.7361 28.1798 28.1796C26.7362 29.6232 24.7784 30.4341 22.7369 30.4341C20.6954 30.4341 18.7376 29.6232 17.294 28.1796C15.8505 26.7361 15.0395 24.7782 15.0395 22.7368C15.0395 20.6953 15.8505 18.7375 17.294 17.2939C18.7376 15.8504 20.6954 15.0394 22.7369 15.0394ZM22.7369 18.1184C21.512 18.1184 20.3373 18.6049 19.4712 19.4711C18.6051 20.3372 18.1185 21.5119 18.1185 22.7368C18.1185 23.9617 18.6051 25.1364 19.4712 26.0025C20.3373 26.8686 21.512 27.3552 22.7369 27.3552C23.9618 27.3552 25.1365 26.8686 26.0026 26.0025C26.8687 25.1364 27.3553 23.9617 27.3553 22.7368C27.3553 21.5119 26.8687 20.3372 26.0026 19.4711C25.1365 18.6049 23.9618 18.1184 22.7369 18.1184Z" fill="white"/>
</svg>
