<svg width="39" height="39" viewBox="0 0 39 39" fill="none" xmlns="http://www.w3.org/2000/svg">
<path d="M34.375 0.375C35.5022 0.375 36.5832 0.822766 37.3802 1.6198C38.1772 2.41683 38.625 3.49783 38.625 4.625V34.375C38.625 35.5022 38.1772 36.5832 37.3802 37.3802C36.5832 38.1772 35.5022 38.625 34.375 38.625H4.625C3.49783 38.625 2.41683 38.1772 1.6198 37.3802C0.822766 36.5832 0.375 35.5022 0.375 34.375V4.625C0.375 3.49783 0.822766 2.41683 1.6198 1.6198C2.41683 0.822766 3.49783 0.375 4.625 0.375H34.375ZM33.3125 33.3125V22.05C33.3125 20.2127 32.5826 18.4507 31.2835 17.1515C29.9843 15.8524 28.2223 15.1225 26.385 15.1225C24.5787 15.1225 22.475 16.2275 21.455 17.885V15.5263H15.5263V33.3125H21.455V22.8362C21.455 21.2 22.7725 19.8613 24.4088 19.8613C25.1978 19.8613 25.9545 20.1747 26.5124 20.7326C27.0703 21.2905 27.3838 22.0472 27.3838 22.8362V33.3125H33.3125ZM8.62 12.19C9.56682 12.19 10.4749 11.8139 11.1444 11.1444C11.8139 10.4749 12.19 9.56682 12.19 8.62C12.19 6.64375 10.5963 5.02875 8.62 5.02875C7.66754 5.02875 6.75409 5.40711 6.0806 6.0806C5.40711 6.75409 5.02875 7.66754 5.02875 8.62C5.02875 10.5963 6.64375 12.19 8.62 12.19ZM11.5738 33.3125V15.5263H5.6875V33.3125H11.5738Z" fill="#2A2A2A"/>
</svg>
