<svg width="54" height="78" viewBox="0 0 54 78" fill="none" xmlns="http://www.w3.org/2000/svg">
<path d="M37.1413 33.4279L50.5 3.16667M19.3823 34.098L3.91663 3.16667M31.7269 32.0053L17.6587 3.16667M37.4566 3.16667L33.73 12.125M7.49996 53.3333C7.49996 59.0355 9.76513 64.5041 13.7972 68.5361C17.8292 72.5682 23.2978 74.8333 29 74.8333C34.7021 74.8333 40.1707 72.5682 44.2028 68.5361C48.2348 64.5041 50.5 59.0355 50.5 53.3333C50.5 47.6312 48.2348 42.1626 44.2028 38.1305C40.1707 34.0985 34.7021 31.8333 29 31.8333C23.2978 31.8333 17.8292 34.0985 13.7972 38.1305C9.76513 42.1626 7.49996 47.6312 7.49996 53.3333V53.3333Z" stroke="black" stroke-width="6" stroke-linecap="round" stroke-linejoin="round"/>
</svg>
