<svg width="99" height="81" viewBox="0 0 99 81" fill="none" xmlns="http://www.w3.org/2000/svg">
<path d="M36.125 49.4167C37.3882 49.4167 38.4478 48.9887 39.3038 48.1327C40.1569 47.2796 40.5834 46.2215 40.5834 44.9583V40.5C40.5834 39.2368 41.0114 38.1772 41.8674 37.3212C42.7204 36.4682 43.7785 36.0417 45.0417 36.0417H53.9584V39.6083C53.9584 40.6486 54.4042 41.3545 55.2959 41.726C56.1875 42.0976 57.0049 41.9118 57.748 41.1688L65.773 33.1438C65.9216 32.9951 66.1445 32.475 66.4417 31.5833C66.4417 31.4347 66.2188 30.9146 65.773 30.0229L57.748 21.9979C57.0049 21.2549 56.1875 21.0691 55.2959 21.4406C54.4042 21.8122 53.9584 22.5181 53.9584 23.5583V27.125H45.0417C41.3264 27.125 38.1684 28.4253 35.5677 31.026C32.9671 33.6267 31.6667 36.7847 31.6667 40.5V44.9583C31.6667 46.2215 32.0947 47.2796 32.9507 48.1327C33.8037 48.9887 34.8618 49.4167 36.125 49.4167ZM13.8334 67.25C11.3813 67.25 9.2829 66.3777 7.53821 64.633C5.79054 62.8853 4.91671 60.7854 4.91671 58.3333V9.29167C4.91671 6.83958 5.79054 4.73971 7.53821 2.99204C9.2829 1.24735 11.3813 0.375 13.8334 0.375H85.1667C87.6188 0.375 89.7187 1.24735 91.4663 2.99204C93.211 4.73971 94.0834 6.83958 94.0834 9.29167V58.3333C94.0834 60.7854 93.211 62.8853 91.4663 64.633C89.7187 66.3777 87.6188 67.25 85.1667 67.25H13.8334ZM13.8334 58.3333H85.1667V9.29167H13.8334V58.3333ZM4.91671 80.625C3.65351 80.625 2.5954 80.197 1.74237 79.341C0.886374 78.488 0.458374 77.4299 0.458374 76.1667C0.458374 74.9035 0.886374 73.8454 1.74237 72.9923C2.5954 72.1363 3.65351 71.7083 4.91671 71.7083H94.0834C95.3466 71.7083 96.4047 72.1363 97.2577 72.9923C98.1137 73.8454 98.5417 74.9035 98.5417 76.1667C98.5417 77.4299 98.1137 78.488 97.2577 79.341C96.4047 80.197 95.3466 80.625 94.0834 80.625H4.91671Z" fill="black"/>
</svg>
