<svg width="48" height="74" viewBox="0 0 48 74" fill="none" xmlns="http://www.w3.org/2000/svg">
<path d="M14 47V42C14 39.2222 14.9722 36.8611 16.9166 34.9167C18.8611 32.9722 21.2222 32 24 32H27.3333V25.3333L37.3333 35.3333L27.3333 45.3333V38.6667H24C23.0555 38.6667 22.2644 38.9856 21.6266 39.6233C20.9866 40.2633 20.6666 41.0556 20.6666 42V47H14ZM7.33329 73.6667C5.49996 73.6667 3.93107 73.0144 2.62663 71.71C1.31996 70.4033 0.666626 68.8333 0.666626 67V7C0.666626 5.16666 1.31996 3.59666 2.62663 2.29C3.93107 0.985551 5.49996 0.333328 7.33329 0.333328H40.6666C42.5 0.333328 44.07 0.985551 45.3766 2.29C46.6811 3.59666 47.3333 5.16666 47.3333 7V67C47.3333 68.8333 46.6811 70.4033 45.3766 71.71C44.07 73.0144 42.5 73.6667 40.6666 73.6667H7.33329ZM7.33329 57H40.6666V17H7.33329V57Z" fill="black"/>
</svg>
