<svg width="104" height="76" viewBox="0 0 104 76" fill="none" xmlns="http://www.w3.org/2000/svg">
<path d="M66 0.666668C70.9507 0.666668 75.6986 2.63333 79.1993 6.13401C82.7 9.63469 84.6666 14.3826 84.6666 19.3333C84.6666 24.284 82.7 29.032 79.1993 32.5327C75.6986 36.0333 70.9507 38 66 38C61.0493 38 56.3013 36.0333 52.8006 32.5327C49.3 29.032 47.3333 24.284 47.3333 19.3333C47.3333 14.3826 49.3 9.63469 52.8006 6.13401C56.3013 2.63333 61.0493 0.666668 66 0.666668ZM66 9.53334C63.4008 9.53334 60.9082 10.5658 59.0703 12.4037C57.2325 14.2415 56.2 16.7342 56.2 19.3333C56.2 21.9325 57.2325 24.4251 59.0703 26.263C60.9082 28.1008 63.4008 29.1333 66 29.1333C68.5991 29.1333 71.0918 28.1008 72.9296 26.263C74.7675 24.4251 75.8 21.9325 75.8 19.3333C75.8 16.7342 74.7675 14.2415 72.9296 12.4037C71.0918 10.5658 68.5991 9.53334 66 9.53334ZM66 42.6667C78.46 42.6667 103.333 48.8733 103.333 61.3333V75.3333H28.6666V61.3333C28.6666 48.8733 53.54 42.6667 66 42.6667ZM66 51.5333C52 51.5333 37.5333 58.3467 37.5333 61.3333V66.4667H94.4666V61.3333C94.4666 58.3467 79.86 51.5333 66 51.5333ZM19.3333 43.9733L7.66663 50.9267L10.84 37.8133L0.666626 29.04L14.06 27.8733L19.3333 15.5533L24.5133 27.8733L38 29.04L27.7333 37.8133L30.7666 50.9267L19.3333 43.9733Z" fill="black"/>
</svg>
